<svg width="4" height="5" viewBox="0 0 4 5" fill="none" xmlns="http://www.w3.org/2000/svg">
<path d="M0.225239 2.84933C0.101727 2.65827 0.0399711 2.56274 0.0159353 2.45987C-0.00531176 2.36894 -0.00531176 2.27434 0.0159353 2.18341C0.0399711 2.08055 0.101727 1.98502 0.225239 1.79396L1.14212 0.375609C1.27806 0.165334 1.34602 0.0601966 1.43233 0.0238323C1.50774 -0.0079441 1.59279 -0.0079441 1.66821 0.0238323C1.75452 0.0601965 1.82248 0.165334 1.95841 0.375609L2.8753 1.79396C2.99881 1.98502 3.06057 2.08055 3.0846 2.18341C3.10585 2.27434 3.10585 2.36894 3.0846 2.45987C3.06057 2.56274 2.99881 2.65827 2.8753 2.84933L1.95841 4.26768C1.82248 4.47795 1.75452 4.58309 1.66821 4.61945C1.59279 4.65123 1.50774 4.65123 1.43233 4.61945C1.34602 4.58309 1.27806 4.47795 1.14212 4.26768L0.225239 2.84933Z" fill="#221E1F"/>
</svg>
