<svg width="12" height="16" viewBox="0 0 12 16" fill="none" xmlns="http://www.w3.org/2000/svg">
<path d="M1.63775 9.73725C1.23113 9.10823 1.02782 8.79373 0.948687 8.45508C0.878738 8.15573 0.878738 7.84428 0.948687 7.54493C1.02782 7.20628 1.23113 6.89177 1.63775 6.26276L4.65631 1.5933C5.10383 0.901031 5.32758 0.554898 5.61172 0.43518C5.86 0.330567 6.14 0.330566 6.38828 0.43518C6.67242 0.554898 6.89617 0.901031 7.34369 1.5933L10.3622 6.26276C10.7689 6.89177 10.9722 7.20628 11.0513 7.54493C11.1213 7.84428 11.1213 8.15573 11.0513 8.45508C10.9722 8.79373 10.7689 9.10823 10.3622 9.73725L7.34369 14.4067C6.89617 15.099 6.67242 15.4451 6.38828 15.5648C6.14 15.6694 5.86 15.6694 5.61172 15.5648C5.32758 15.4451 5.10383 15.099 4.65631 14.4067L1.63775 9.73725Z" fill="#CDF563"/>
</svg>
