<svg width="350" height="327" viewBox="0 0 350 327" fill="none" xmlns="http://www.w3.org/2000/svg">
<circle cx="100" cy="100" r="99.5" stroke="black"/>
<circle cx="250" cy="100" r="99.5" stroke="black"/>
<circle cx="175" cy="227" r="99.5" stroke="black"/>
<path d="M64.6905 103.014V102.552H66.0345V93.928H64.6905V93.466H65.6705L66.6925 93.48L67.7145 93.466H68.6525V93.928H67.3505V97.96H71.2705V93.928H69.9685V93.466H70.9765L71.9285 93.48L72.9505 93.466H73.9305V93.928H72.5865V102.552H73.9305V103.014H72.9505L71.9285 103L70.9065 103.014H69.9685V102.552H71.2705V98.422H67.3505V102.552H68.6525V103.014H67.6445L66.6925 103L65.6705 103.014H64.6905ZM77.3446 103.238C76.8686 103.238 76.3226 103.042 76.0146 102.776C75.7066 102.51 75.6226 102.328 75.6226 101.88V97.204H74.5446V96.742H76.0986L76.7286 96.518L76.7986 96.588V101.852C76.7986 102.412 77.0926 102.72 77.6666 102.72C78.7306 102.72 79.4306 101.376 79.4306 99.374V97.204H78.3526V96.742H79.9066L80.5366 96.518L80.6066 96.588V102.552H81.6846V103.014H80.1726L79.5006 103.168L79.4306 103.098V101.964H79.4026C78.9406 102.818 78.2266 103.238 77.3446 103.238ZM82.1599 103.014V102.552H83.2379V97.204H82.1599V96.742H83.7139L84.3439 96.518L84.4139 96.588V97.792H84.4419C84.9039 96.938 85.6179 96.518 86.4999 96.518C86.9759 96.518 87.5219 96.714 87.8299 96.98C88.1379 97.246 88.2079 97.428 88.2219 97.792H88.2499C88.7119 96.938 89.4259 96.518 90.3079 96.518C90.7839 96.518 91.3299 96.714 91.6379 96.98C91.9459 97.246 92.0299 97.428 92.0299 97.876V102.552H93.1079V103.014H92.2119L91.4419 103L90.6719 103.014H89.7759V102.552H90.8539V97.904C90.8539 97.344 90.5739 97.036 89.9859 97.036C88.9219 97.036 88.2219 98.38 88.2219 100.382V102.552H89.2999V103.014H88.4039L87.6339 103L86.8639 103.014H85.9679V102.552H87.0459V97.904C87.0459 97.344 86.7659 97.036 86.1779 97.036C85.1139 97.036 84.4139 98.38 84.4139 100.382V102.552H85.4919V103.014H84.5959L83.8259 103L83.0559 103.014H82.1599ZM95.8716 103.238C94.7656 103.238 94.0656 102.706 94.0656 101.852V101.516C94.0656 100.578 94.4716 100.144 95.5636 99.934C96.3616 99.78 97.7616 99.458 97.7616 98.296V98.044C97.7616 97.414 97.4816 96.994 96.5716 96.994C96.0116 96.994 95.4516 97.204 95.1576 97.512V97.54L95.3396 97.61C95.8296 97.806 95.9556 98.072 95.9556 98.38C95.9556 98.842 95.6196 99.178 95.1576 99.178C94.7236 99.178 94.3176 98.8 94.3176 98.24C94.3176 97.288 95.4376 96.518 96.8656 96.518C97.5516 96.518 98.1676 96.742 98.5176 97.022C98.8676 97.302 98.9376 97.554 98.9376 98.03V101.978C98.9376 102.384 99.1336 102.622 99.4416 102.622C99.9176 102.622 100.198 102.23 100.198 101.544V99.878H100.66V101.572C100.66 102.482 100.184 103.154 99.1476 103.154C98.4336 103.154 97.9436 102.902 97.8176 102.23H97.7896C97.3416 102.86 96.6976 103.238 95.8716 103.238ZM95.2976 101.922C95.2976 102.58 95.7036 102.72 96.0956 102.72C97.0756 102.72 97.7616 101.866 97.7616 100.62V99.36H97.7336C97.4396 99.892 96.6136 100.144 96.1376 100.284C95.6056 100.438 95.2976 100.718 95.2976 101.404V101.922ZM101.205 103.014V102.552H102.283V97.204H101.205V96.742H102.759L103.389 96.518L103.459 96.588V97.792H103.487C103.949 96.938 104.663 96.518 105.545 96.518C106.007 96.518 106.567 96.714 106.875 96.98C107.183 97.246 107.267 97.428 107.267 97.876V102.552H108.345V103.014H107.449L106.679 103L105.909 103.014H105.013V102.552H106.091V97.904C106.091 97.344 105.811 97.036 105.237 97.036C104.173 97.036 103.459 98.366 103.459 100.382V102.552H104.537V103.014H103.641L102.871 103L102.101 103.014H101.205ZM111.676 105.422C110.08 103.546 109.212 101.236 109.212 98.8C109.212 96.364 110.08 94.054 111.676 92.178L112.11 92.584C110.696 94.306 109.856 96.406 109.856 98.8C109.856 101.194 110.696 103.294 112.11 105.016L111.676 105.422ZM112.634 103.014V102.552H113.712V97.204H112.634V96.742H114.188L114.818 96.518L114.888 96.588V102.552H115.966V103.014H115.07L114.3 103L113.53 103.014H112.634ZM113.39 94.628C113.39 94.152 113.782 93.76 114.258 93.76C114.72 93.76 115.112 94.152 115.112 94.628C115.112 95.104 114.72 95.496 114.258 95.496C113.782 95.496 113.39 95.104 113.39 94.628ZM119.311 103.238C118.681 103.238 118.051 103 117.743 102.538C117.533 102.244 117.533 101.866 117.533 101.404V97.204H116.063V96.742H116.385C117.561 96.742 118.023 96.168 118.247 93.97H118.709V96.742H120.599V97.204H118.709V101.558C118.709 102.412 118.975 102.734 119.577 102.734C120.263 102.734 120.795 102.16 120.795 101.278V99.878H121.257V101.208C121.257 102.776 120.221 103.238 119.311 103.238ZM122.967 106.094C122.519 106.094 122.141 105.716 122.141 105.254C122.141 104.834 122.463 104.442 122.897 104.442C123.079 104.442 123.261 104.498 123.471 104.652L123.681 104.806L124.605 102.58L122.561 97.204H121.847V96.742H122.281L123.079 96.756L123.807 96.742H124.605V97.204H123.849L125.277 100.956H125.291L126.845 97.204H125.753V96.742H128.217V97.204H127.349L124.045 105.128C123.779 105.772 123.401 106.094 122.967 106.094ZM128.587 92.178C130.183 94.054 131.051 96.364 131.051 98.8C131.051 101.236 130.183 103.546 128.587 105.422L128.153 105.016C129.567 103.294 130.407 101.194 130.407 98.8C130.407 96.406 129.567 94.306 128.153 92.584L128.587 92.178Z" fill="black"/>
<path d="M237.764 103.014V102.552H239.108V93.928H237.764V93.466H238.744L239.766 93.48L240.788 93.466H241.712C244.988 93.466 246.262 96.518 246.262 98.24C246.262 99.962 244.988 103.014 241.712 103.014H240.788L239.766 103L238.744 103.014H237.764ZM240.424 102.552H241.6C243.616 102.552 244.624 101.6 244.624 99.696V96.784C244.624 94.88 243.616 93.928 241.614 93.928H240.424V102.552ZM249.421 103.238C248.315 103.238 247.615 102.706 247.615 101.852V101.516C247.615 100.578 248.021 100.144 249.113 99.934C249.911 99.78 251.311 99.458 251.311 98.296V98.044C251.311 97.414 251.031 96.994 250.121 96.994C249.561 96.994 249.001 97.204 248.707 97.512V97.54L248.889 97.61C249.379 97.806 249.505 98.072 249.505 98.38C249.505 98.842 249.169 99.178 248.707 99.178C248.273 99.178 247.867 98.8 247.867 98.24C247.867 97.288 248.987 96.518 250.415 96.518C251.101 96.518 251.717 96.742 252.067 97.022C252.417 97.302 252.487 97.554 252.487 98.03V101.978C252.487 102.384 252.683 102.622 252.991 102.622C253.467 102.622 253.747 102.23 253.747 101.544V99.878H254.209V101.572C254.209 102.482 253.733 103.154 252.697 103.154C251.983 103.154 251.493 102.902 251.367 102.23H251.339C250.891 102.86 250.247 103.238 249.421 103.238ZM248.847 101.922C248.847 102.58 249.253 102.72 249.645 102.72C250.625 102.72 251.311 101.866 251.311 100.62V99.36H251.283C250.989 99.892 250.163 100.144 249.687 100.284C249.155 100.438 248.847 100.718 248.847 101.404V101.922ZM257.616 103.238C256.986 103.238 256.356 103 256.048 102.538C255.838 102.244 255.838 101.866 255.838 101.404V97.204H254.368V96.742H254.69C255.866 96.742 256.328 96.168 256.552 93.97H257.014V96.742H258.904V97.204H257.014V101.558C257.014 102.412 257.28 102.734 257.882 102.734C258.568 102.734 259.1 102.16 259.1 101.278V99.878H259.562V101.208C259.562 102.776 258.526 103.238 257.616 103.238ZM262.519 103.238C261.413 103.238 260.713 102.706 260.713 101.852V101.516C260.713 100.578 261.119 100.144 262.211 99.934C263.009 99.78 264.409 99.458 264.409 98.296V98.044C264.409 97.414 264.129 96.994 263.219 96.994C262.659 96.994 262.099 97.204 261.805 97.512V97.54L261.987 97.61C262.477 97.806 262.603 98.072 262.603 98.38C262.603 98.842 262.267 99.178 261.805 99.178C261.371 99.178 260.965 98.8 260.965 98.24C260.965 97.288 262.085 96.518 263.513 96.518C264.199 96.518 264.815 96.742 265.165 97.022C265.515 97.302 265.585 97.554 265.585 98.03V101.978C265.585 102.384 265.781 102.622 266.089 102.622C266.565 102.622 266.845 102.23 266.845 101.544V99.878H267.307V101.572C267.307 102.482 266.831 103.154 265.795 103.154C265.081 103.154 264.591 102.902 264.465 102.23H264.437C263.989 102.86 263.345 103.238 262.519 103.238ZM261.945 101.922C261.945 102.58 262.351 102.72 262.743 102.72C263.723 102.72 264.409 101.866 264.409 100.62V99.36H264.381C264.087 99.892 263.261 100.144 262.785 100.284C262.253 100.438 261.945 100.718 261.945 101.404V101.922Z" fill="black"/>
<path d="M162.057 236.154L156.541 227.32H156.527V235.552H157.871V236.014H154.693V235.552H156.037V226.928H154.693V226.466H157.563L161.889 233.396H161.903V226.928H160.559V226.466H163.737V226.928H162.393V236.154H162.057ZM166.119 236.238C165.013 236.238 164.313 235.706 164.313 234.852V234.516C164.313 233.578 164.719 233.144 165.811 232.934C166.609 232.78 168.009 232.458 168.009 231.296V231.044C168.009 230.414 167.729 229.994 166.819 229.994C166.259 229.994 165.699 230.204 165.405 230.512V230.54L165.587 230.61C166.077 230.806 166.203 231.072 166.203 231.38C166.203 231.842 165.867 232.178 165.405 232.178C164.971 232.178 164.565 231.8 164.565 231.24C164.565 230.288 165.685 229.518 167.113 229.518C167.799 229.518 168.415 229.742 168.765 230.022C169.115 230.302 169.185 230.554 169.185 231.03V234.978C169.185 235.384 169.381 235.622 169.689 235.622C170.165 235.622 170.445 235.23 170.445 234.544V232.878H170.907V234.572C170.907 235.482 170.431 236.154 169.395 236.154C168.681 236.154 168.191 235.902 168.065 235.23H168.037C167.589 235.86 166.945 236.238 166.119 236.238ZM165.545 234.922C165.545 235.58 165.951 235.72 166.343 235.72C167.323 235.72 168.009 234.866 168.009 233.62V232.36H167.981C167.687 232.892 166.861 233.144 166.385 233.284C165.853 233.438 165.545 233.718 165.545 234.404V234.922ZM174.313 236.238C173.683 236.238 173.053 236 172.745 235.538C172.535 235.244 172.535 234.866 172.535 234.404V230.204H171.065V229.742H171.387C172.563 229.742 173.025 229.168 173.249 226.97H173.711V229.742H175.601V230.204H173.711V234.558C173.711 235.412 173.977 235.734 174.579 235.734C175.265 235.734 175.797 235.16 175.797 234.278V232.878H176.259V234.208C176.259 235.776 175.223 236.238 174.313 236.238ZM179.502 236.238C179.026 236.238 178.48 236.042 178.172 235.776C177.864 235.51 177.78 235.328 177.78 234.88V230.204H176.702V229.742H178.256L178.886 229.518L178.956 229.588V234.852C178.956 235.412 179.25 235.72 179.824 235.72C180.888 235.72 181.588 234.376 181.588 232.374V230.204H180.51V229.742H182.064L182.694 229.518L182.764 229.588V235.552H183.842V236.014H182.33L181.658 236.168L181.588 236.098V234.964H181.56C181.098 235.818 180.384 236.238 179.502 236.238ZM184.317 236.014V235.552H185.395V230.204H184.317V229.742H185.871L186.501 229.518L186.571 229.588V230.764H186.599C186.963 229.98 187.621 229.518 188.349 229.518C189.189 229.518 189.819 230.092 189.819 230.82C189.819 231.366 189.441 231.73 188.909 231.73C188.195 231.73 187.817 230.792 188.433 230.302L188.713 230.078V230.05C188.643 230.008 188.517 229.966 188.377 229.966C187.229 229.966 186.571 231.338 186.571 233.746V235.552H188.083V236.014H186.753L185.983 236L185.213 236.014H184.317ZM193.554 236.238C191.972 236.238 190.502 234.656 190.502 232.878C190.502 231.128 191.944 229.518 193.498 229.518C195.136 229.518 196.102 230.946 196.2 232.682L196.102 232.794H191.944V233.83C191.944 235.104 192.56 235.776 193.554 235.776C194.814 235.776 195.612 234.866 195.668 233.606H196.13C196.074 235.118 195.08 236.238 193.554 236.238ZM191.944 232.332H194.646V231.688C194.646 230.596 194.24 229.98 193.428 229.98C193.12 229.98 192.742 230.092 192.49 230.302C192.07 230.652 191.944 231.058 191.944 232.136V232.332Z" fill="black"/>
</svg>
