<svg width="425" height="372" viewBox="0 0 425 372" fill="none" xmlns="http://www.w3.org/2000/svg">
<path d="M5.952 195.648H35.04C42.464 195.648 48.224 197.6 52.32 201.504C56.416 205.344 58.464 210.592 58.464 217.248C58.464 223.84 56.416 229.088 52.32 232.992C48.224 236.832 42.464 238.752 35.04 238.752H16.224V264H5.952V195.648ZM16.224 229.728H34.848C39.136 229.728 42.4 228.672 44.64 226.56C46.88 224.384 48 221.28 48 217.248C48 213.216 46.88 210.112 44.64 207.936C42.4 205.76 39.136 204.672 34.848 204.672H16.224V229.728ZM118.631 244.992L119.303 255.648C119.623 259.168 120.391 261.952 121.607 264H111.047C109.767 262.144 109.095 259.232 109.031 255.264L108.743 247.968C108.551 243.552 107.559 240.448 105.767 238.656C103.975 236.8 101.095 235.872 97.1273 235.872H77.2553V264H66.9833V195.648H96.8393C104.135 195.648 109.863 197.344 114.023 200.736C118.247 204.064 120.359 208.672 120.359 214.56C120.359 218.72 119.335 222.24 117.287 225.12C115.303 227.936 112.487 229.92 108.839 231.072C112.167 232.032 114.599 233.664 116.135 235.968C117.671 238.208 118.503 241.216 118.631 244.992ZM77.2553 227.328H97.0313C100.999 227.328 104.103 226.304 106.343 224.256C108.647 222.208 109.799 219.296 109.799 215.52C109.799 211.872 108.615 209.12 106.247 207.264C103.943 205.408 100.615 204.48 96.2633 204.48H77.2553V227.328ZM160.324 265.536C150.212 265.536 142.148 262.24 136.132 255.648C129.988 249.12 126.916 240.512 126.916 229.824C126.916 219.2 129.988 210.56 136.132 203.904C142.148 197.376 150.212 194.112 160.324 194.112C170.308 194.112 178.372 197.376 184.516 203.904C190.596 210.56 193.636 219.2 193.636 229.824C193.636 240.448 190.596 249.056 184.516 255.648C178.372 262.24 170.308 265.536 160.324 265.536ZM143.812 249.12C147.908 253.92 153.412 256.32 160.324 256.32C167.236 256.32 172.74 253.92 176.836 249.12C180.932 244.448 182.98 238.016 182.98 229.824C182.98 221.632 180.932 215.168 176.836 210.432C172.676 205.696 167.172 203.328 160.324 203.328C153.476 203.328 147.972 205.696 143.812 210.432C139.652 215.296 137.572 221.76 137.572 229.824C137.572 237.952 139.652 244.384 143.812 249.12ZM219.663 265.536C212.943 265.536 207.663 263.648 203.823 259.872C199.983 256.096 198.063 250.912 198.063 244.32V239.904H207.951V244.32C207.951 248.224 208.975 251.232 211.023 253.344C213.071 255.456 215.919 256.512 219.567 256.512C223.279 256.512 226.159 255.488 228.207 253.44C230.255 251.328 231.279 248.288 231.279 244.32V195.648H241.455V244.32C241.455 250.848 239.503 256.032 235.599 259.872C231.759 263.648 226.447 265.536 219.663 265.536ZM301.189 195.648V204.864H262.693V224.16H297.541V233.184H262.693V254.784H300.901V264H252.421V195.648H301.189ZM338.141 265.536C328.605 265.536 320.861 262.304 314.909 255.84C308.893 249.44 305.885 240.768 305.885 229.824C305.885 218.944 308.861 210.272 314.812 203.808C320.765 197.344 328.541 194.112 338.141 194.112C345.693 194.112 352.189 196.128 357.629 200.16C363.069 204.256 366.557 210.304 368.093 218.304H357.725C356.445 213.312 354.077 209.568 350.621 207.072C347.229 204.512 343.069 203.232 338.141 203.232C331.549 203.232 326.301 205.632 322.397 210.432C318.493 215.168 316.541 221.632 316.541 229.824C316.541 238.016 318.493 244.512 322.397 249.312C326.301 254.048 331.549 256.416 338.141 256.416C343.069 256.416 347.485 254.912 351.389 251.904C355.165 248.896 357.437 244.512 358.205 238.752H368.477C367.645 247.264 364.349 253.856 358.589 258.528C352.893 263.2 346.077 265.536 338.141 265.536ZM366.978 195.648H422.754V204.864H400.098V264H389.634V204.864H366.978V195.648ZM57.6 340.992L58.272 351.648C58.592 355.168 59.36 357.952 60.576 360H50.016C48.736 358.144 48.064 355.232 48 351.264L47.712 343.968C47.52 339.552 46.528 336.448 44.736 334.656C42.944 332.8 40.064 331.872 36.096 331.872H16.224V360H5.952V291.648H35.808C43.104 291.648 48.832 293.344 52.992 296.736C57.216 300.064 59.328 304.672 59.328 310.56C59.328 314.72 58.304 318.24 56.256 321.12C54.272 323.936 51.456 325.92 47.808 327.072C51.136 328.032 53.568 329.664 55.104 331.968C56.64 334.208 57.472 337.216 57.6 340.992ZM16.224 323.328H36C39.968 323.328 43.072 322.304 45.312 320.256C47.616 318.208 48.768 315.296 48.768 311.52C48.768 307.872 47.584 305.12 45.216 303.264C42.912 301.408 39.584 300.48 35.232 300.48H16.224V323.328ZM99.2925 361.536C89.1805 361.536 81.1165 358.24 75.1005 351.648C68.9565 345.12 65.8845 336.512 65.8845 325.824C65.8845 315.2 68.9565 306.56 75.1005 299.904C81.1165 293.376 89.1805 290.112 99.2925 290.112C109.277 290.112 117.341 293.376 123.485 299.904C129.565 306.56 132.605 315.2 132.605 325.824C132.605 336.448 129.565 345.056 123.485 351.648C117.341 358.24 109.277 361.536 99.2925 361.536ZM82.7805 345.12C86.8765 349.92 92.3805 352.32 99.2925 352.32C106.205 352.32 111.709 349.92 115.805 345.12C119.901 340.448 121.949 334.016 121.949 325.824C121.949 317.632 119.901 311.168 115.805 306.432C111.645 301.696 106.141 299.328 99.2925 299.328C92.4445 299.328 86.9405 301.696 82.7805 306.432C78.6205 311.296 76.5405 317.76 76.5405 325.824C76.5405 333.952 78.6205 340.384 82.7805 345.12ZM131.478 291.648H187.254V300.864H164.598V360H154.134V300.864H131.478V291.648ZM219.574 361.536C209.462 361.536 201.398 358.24 195.382 351.648C189.238 345.12 186.166 336.512 186.166 325.824C186.166 315.2 189.238 306.56 195.382 299.904C201.398 293.376 209.462 290.112 219.574 290.112C229.558 290.112 237.622 293.376 243.766 299.904C249.846 306.56 252.886 315.2 252.886 325.824C252.886 336.448 249.846 345.056 243.766 351.648C237.622 358.24 229.558 361.536 219.574 361.536ZM203.062 345.12C207.158 349.92 212.662 352.32 219.574 352.32C226.486 352.32 231.99 349.92 236.086 345.12C240.182 340.448 242.23 334.016 242.23 325.824C242.23 317.632 240.182 311.168 236.086 306.432C231.926 301.696 226.422 299.328 219.574 299.328C212.726 299.328 207.222 301.696 203.062 306.432C198.902 311.296 196.822 317.76 196.822 325.824C196.822 333.952 198.902 340.384 203.062 345.12ZM304.226 327.072L317.762 291.648H332.066V360H322.178V338.592C322.178 323.168 322.306 311.616 322.562 303.936C321.218 308.032 319.298 313.312 316.802 319.776L301.346 360H292.706L277.058 319.776C274.946 314.144 273.058 308.96 271.394 304.224C271.65 311.84 271.778 323.296 271.778 338.592V360H261.89V291.648H276.098L290.114 328.032C292.994 335.584 295.33 342.016 297.122 347.328C299.234 340.992 301.602 334.24 304.226 327.072Z" fill="black"/>
<path fill-rule="evenodd" clip-rule="evenodd" d="M60 36L42 0L24 36H60ZM84 85C84 105.435 65.196 122 42 122C18.804 122 0 105.435 0 85C0 64.5655 18.804 48 42 48C65.196 48 84 64.5655 84 85ZM60 144C60 151.732 51.9411 158 42 158C32.0589 158 24 151.732 24 144C24 136.268 32.0589 130 42 130C51.9411 130 60 136.268 60 144Z" fill="black"/>
</svg>
