<svg width="6" height="8" viewBox="0 0 6 8" fill="none" xmlns="http://www.w3.org/2000/svg">
<path d="M2.81243 0.506905C2.87686 0.332781 3.12313 0.332781 3.18757 0.506905L4.01665 2.74747C4.05778 2.85862 4.13706 2.95155 4.24035 3.00968L5.6903 3.82571C5.82618 3.90218 5.82618 4.09783 5.6903 4.1743L4.24035 4.99033C4.13706 5.04846 4.05778 5.14139 4.01665 5.25254L3.18757 7.4931C3.12313 7.66723 2.87686 7.66723 2.81243 7.4931L1.98334 5.25254C1.94221 5.14139 1.86293 5.04846 1.75965 4.99033L0.309688 4.1743C0.173809 4.09783 0.173809 3.90218 0.309688 3.82571L1.75965 3.00968C1.86293 2.95155 1.94221 2.85862 1.98334 2.74747L2.81243 0.506905Z" fill="#A0C3D2"/>
</svg>
